# Blender v2.91.0 OBJ File: 'pokari-sweat.blend'
# www.blender.org
mtllib pokari-sweat.mtl
o Cube
v 0.905575 -2.373019 -1.215326
v 0.905575 -2.373019 1.215326
v 0.905575 2.373019 -1.215326
v 0.905575 2.373019 1.215326
v -0.905575 -2.373019 -1.215326
v -0.905575 -2.373019 1.215326
v -0.905575 2.373019 -1.215326
v -0.905575 2.373019 1.215326
vt 0.721187 0.500000
vt 0.996499 0.500000
vt 0.996499 0.827630
vt 0.721187 0.827630
vt 0.304125 0.827630
vt 0.721187 1.000000
vt 0.304125 1.000000
vt 0.304125 0.000000
vt 0.721187 0.000000
vt 0.721187 0.327630
vt 0.304125 0.327630
vt 0.008563 0.500000
vt 0.304125 0.500000
vt 0.008563 0.827630
vn 0.0000 -0.0000 -1.0000
vn 0.0000 1.0000 0.0000
vn -1.0000 0.0000 0.0000
vn 0.0000 0.0000 1.0000
vn 1.0000 0.0000 0.0000
vn 0.0000 -1.0000 0.0000
usemtl Material
s off
f 1/1/1 5/2/1 7/3/1 3/4/1
f 4/5/2 3/4/2 7/6/2 8/7/2
f 8/8/3 7/9/3 5/10/3 6/11/3
f 6/12/4 2/13/4 4/5/4 8/14/4
f 2/13/5 1/1/5 3/4/5 4/5/5
f 6/11/6 5/10/6 1/1/6 2/13/6
